<?xml version="1.0" encoding="UTF-8"?>
<svg width="40px" height="40px" viewBox="0 0 40 40" version="1.1" xmlns="http://www.w3.org/2000/svg" xmlns:xlink="http://www.w3.org/1999/xlink">
    <!-- Generator: Sketch 52.4 (67378) - http://www.bohemiancoding.com/sketch -->
    <title>dw_logo</title>
    <desc>Created with Sketch.</desc>
    <g id="Page-1" stroke="none" stroke-width="1" fill="none" fill-rule="evenodd">
        <g id="export" transform="translate(-100.000000, -100.000000)" fill="#001DDE">
            <path d="M120,140 C108.954305,140 100,131.045695 100,120 C100,108.954305 108.954305,100 120,100 C131.045695,100 140,108.954305 140,120 C140,131.045695 131.045695,140 120,140 Z M124.552846,109.756098 C124.342879,109.756098 124.15647,109.890454 124.090073,110.089645 L117.586008,129.60184 C117.569428,129.65158 117.560976,129.703667 117.560976,129.756098 C117.560976,130.025505 117.779373,130.243902 118.04878,130.243902 L120.435032,130.243902 C120.644998,130.243902 120.831407,130.109546 120.897804,129.910355 L127.401869,110.39816 C127.418449,110.34842 127.426902,110.296333 127.426902,110.243902 C127.426902,109.974495 127.208504,109.756098 126.939097,109.756098 L124.552846,109.756098 Z M130.406504,109.756098 C130.196538,109.756098 130.010129,109.890454 129.943732,110.089645 L123.439667,129.60184 C123.423087,129.65158 123.414634,129.703667 123.414634,129.756098 C123.414634,130.025505 123.633032,130.243902 123.902439,130.243902 L126.28869,130.243902 C126.498656,130.243902 126.685065,130.109546 126.751463,129.910355 L133.255528,110.39816 C133.272107,110.34842 133.28056,110.296333 133.28056,110.243902 C133.28056,109.974495 133.062162,109.756098 132.792755,109.756098 L130.406504,109.756098 Z M118.699187,109.756098 C118.489221,109.756098 118.302812,109.890454 118.236415,110.089645 L111.73235,129.60184 C111.71577,129.65158 111.707317,129.703667 111.707317,129.756098 C111.707317,130.025505 111.925715,130.243902 112.195122,130.243902 L114.581373,130.243902 C114.791339,130.243902 114.977748,130.109546 115.044145,129.910355 L121.54821,110.39816 C121.56479,110.34842 121.573243,110.296333 121.573243,110.243902 C121.573243,109.974495 121.354845,109.756098 121.085438,109.756098 L118.699187,109.756098 Z M112.27752,120.642099 C112.294118,120.592317 112.302575,120.540183 112.302564,120.487708 C112.30251,120.2183 112.084069,119.999946 111.814662,120 L109.428342,120.000476 C109.218426,120.000518 109.032077,120.134847 108.96568,120.333985 L105.878704,129.592319 C105.862116,129.642071 105.853659,129.694172 105.853659,129.746616 C105.853659,130.016023 106.072056,130.234421 106.341463,130.234421 L108.727684,130.234421 C108.937636,130.234421 109.124036,130.100082 109.190444,129.900909 L112.27752,120.642099 Z" id="dw_logo"></path>
        </g>
    </g>
</svg>