<svg width="82" height="82" xmlns="http://www.w3.org/2000/svg"><path d="M41 82C18.356 82 0 63.644 0 41S18.356 0 41 0s41 18.356 41 41-18.356 41-41 41zm9.333-62a1 1 0 0 0-.948.684l-13.334 40A1 1 0 0 0 37 62h4.892a1 1 0 0 0 .948-.684l13.334-40A1 1 0 0 0 55.225 20h-4.892zm12 0a1 1 0 0 0-.948.684l-13.334 40A1 1 0 0 0 49 62h4.892a1 1 0 0 0 .948-.684l13.334-40A1 1 0 0 0 67.225 20h-4.892zm-24 0a1 1 0 0 0-.948.684l-13.334 40A1 1 0 0 0 25 62h4.892a1 1 0 0 0 .948-.684l13.334-40A1 1 0 0 0 43.225 20h-4.892zM25.17 42.316A1 1 0 0 0 24.22 41l-4.892.001a1 1 0 0 0-.948.684l-6.329 18.98A1 1 0 0 0 13 61.98h4.892a1 1 0 0 0 .948-.684l6.329-18.98z" fill-rule="evenodd"/></svg>