<svg width="40" height="40" xmlns="http://www.w3.org/2000/svg"><path d="M20 40C8.954 40 0 31.046 0 20S8.954 0 20 0s20 8.954 20 20-8.954 20-20 20zm4.553-30.244a.488.488 0 0 0-.463.334l-6.504 19.512a.488.488 0 0 0 .463.642h2.386c.21 0 .396-.134.463-.334l6.504-19.512a.488.488 0 0 0-.463-.642h-2.386zm5.854 0a.488.488 0 0 0-.463.334L23.44 29.602a.488.488 0 0 0 .462.642h2.387c.21 0 .396-.134.462-.334l6.505-19.512a.488.488 0 0 0-.463-.642h-2.386zm-11.708 0a.488.488 0 0 0-.463.334l-6.504 19.512a.488.488 0 0 0 .463.642h2.386c.21 0 .397-.134.463-.334l6.504-19.512a.488.488 0 0 0-.463-.642H18.7zm-6.421 10.886a.488.488 0 0 0-.463-.642H9.428a.488.488 0 0 0-.462.334l-3.087 9.258a.488.488 0 0 0 .462.642h2.387c.21 0 .396-.134.462-.333l3.088-9.259z" fill="#001DDE" fill-rule="evenodd"/></svg>